<svg width="24" height="24" viewBox="0 0 24 24" fill="none" xmlns="http://www.w3.org/2000/svg">
<path id="Vector" d="M23.9389 12.625L20.5103 2.625C20.4348 2.40473 20.2947 2.22295 20.1149 2.11212C19.9351 2.0013 19.7274 1.96865 19.5289 2.02L12.8571 3.75V1C12.8571 0.734784 12.7668 0.48043 12.6061 0.292893C12.4453 0.105357 12.2273 0 12 0C11.7727 0 11.5547 0.105357 11.3939 0.292893C11.2332 0.48043 11.1429 0.734784 11.1429 1V4.1975L4.0993 6.02375C3.96349 6.05875 3.83703 6.13177 3.73082 6.23652C3.62461 6.34127 3.54184 6.4746 3.48965 6.625V6.6325L0.0610878 16.625C0.0200727 16.7442 -0.000669903 16.8716 1.64944e-05 17C1.64944e-05 19.9137 2.6293 21 4.28572 21C5.94215 21 8.57143 19.9137 8.57143 17C8.57212 16.8716 8.55138 16.7442 8.51036 16.625L5.45572 7.72125L11.1429 6.25V22H9.42857C9.20125 22 8.98323 22.1054 8.82248 22.2929C8.66174 22.4804 8.57143 22.7348 8.57143 23C8.57143 23.2652 8.66174 23.5196 8.82248 23.7071C8.98323 23.8946 9.20125 24 9.42857 24H14.5714C14.7988 24 15.0168 23.8946 15.1775 23.7071C15.3383 23.5196 15.4286 23.2652 15.4286 23C15.4286 22.7348 15.3383 22.4804 15.1775 22.2929C15.0168 22.1054 14.7988 22 14.5714 22H12.8571V5.8025L18.3214 4.3875L15.4896 12.625C15.4486 12.7442 15.4279 12.8716 15.4286 13C15.4286 15.9137 18.0578 17 19.7143 17C21.3707 17 24 15.9137 24 13C24.0007 12.8716 23.9799 12.7442 23.9389 12.625ZM4.28572 19C3.47894 19 1.84716 18.5487 1.7218 17.17L4.28572 9.6925L6.84965 17.17C6.72429 18.5487 5.09251 19 4.28572 19ZM19.7143 15C18.9075 15 17.2757 14.5487 17.1504 13.17L19.7143 5.6925L22.2782 13.17C22.1528 14.5487 20.5211 15 19.7143 15Z" fill="black"/>
</svg>
