<svg width="30" height="31" viewBox="0 0 30 31" fill="none" xmlns="http://www.w3.org/2000/svg">
<rect width="30" height="30.5409" rx="15" fill="#F40000"/>
<path fill-rule="evenodd" clip-rule="evenodd" d="M8.44687 20.6585C8.15267 20.5699 7.88424 20.4123 7.66422 20.1989C7.4442 19.9856 7.27905 19.7227 7.18271 19.4326C6.63219 17.9332 6.46907 11.672 7.52933 10.4359C7.88221 10.0338 8.38042 9.78627 8.91583 9.74698C11.7602 9.44304 20.5481 9.48356 21.5574 9.8483C21.8413 9.93982 22.1006 10.094 22.316 10.2993C22.5314 10.5046 22.6973 10.7556 22.8012 11.0337C23.4027 12.5838 23.423 18.2169 22.7196 19.7062C22.533 20.0939 22.2206 20.4079 21.8327 20.5977C20.7724 21.1246 9.85375 21.1145 8.44687 20.6585V20.6585ZM12.9632 17.7204L18.0606 15.0862L12.9632 12.4318V17.7204Z" fill="white"/>
</svg>
