<svg width="30" height="31" viewBox="0 0 30 31" fill="none" xmlns="http://www.w3.org/2000/svg">
<rect width="30" height="30.5409" rx="15" fill="#7289DA"/>
<path d="M21.7706 10.7097C20.5321 9.73238 19.0459 9.24374 17.4771 9.16229L17.2294 9.40664C18.633 9.73238 19.8716 10.3839 21.0275 11.2798C19.6239 10.5468 18.055 10.0582 16.4037 9.89527C15.9083 9.81382 15.4954 9.81382 15 9.81382C14.5046 9.81382 14.0917 9.81382 13.5963 9.89527C11.945 10.0582 10.3761 10.5468 8.97248 11.2798C10.1284 10.3839 11.367 9.73238 12.7706 9.40664L12.5229 9.16229C10.9541 9.24374 9.46787 9.73238 8.22936 10.7097C6.82569 13.3159 6.08257 16.2478 6 19.2611C7.23851 20.5642 8.97247 21.3787 10.789 21.3787C10.789 21.3787 11.367 20.7271 11.7798 20.157C10.7064 19.9127 9.71559 19.3426 9.05505 18.4467C9.63302 18.7725 10.211 19.0983 10.789 19.3426C11.5321 19.6684 12.2753 19.8313 13.0184 19.9942C13.6789 20.0756 14.3395 20.157 15 20.157C15.6605 20.157 16.3211 20.0756 16.9816 19.9942C17.7247 19.8313 18.4679 19.6684 19.211 19.3426C19.789 19.0983 20.367 18.7725 20.945 18.4467C20.2844 19.3426 19.2936 19.9127 18.2202 20.157C18.633 20.7271 19.211 21.3787 19.211 21.3787C21.0275 21.3787 22.7615 20.5642 24 19.2611C23.9174 16.2478 23.1743 13.3159 21.7706 10.7097ZM12.2752 17.7952C11.4496 17.7952 10.7064 17.0622 10.7064 16.1664C10.7064 15.2705 11.4496 14.5375 12.2752 14.5375C13.1009 14.5375 13.8441 15.2705 13.8441 16.1664C13.8441 17.0622 13.1009 17.7952 12.2752 17.7952ZM17.7247 17.7952C16.8991 17.7952 16.1559 17.0622 16.1559 16.1664C16.1559 15.2705 16.8991 14.5375 17.7247 14.5375C18.5504 14.5375 19.2936 15.2705 19.2936 16.1664C19.2936 17.0622 18.5504 17.7952 17.7247 17.7952Z" fill="white"/>
</svg>
