<svg width="30" height="31" viewBox="0 0 30 31" fill="none" xmlns="http://www.w3.org/2000/svg">
<rect width="30" height="30.5409" rx="15" fill="url(#paint0_radial_95_3362)"/>
<path d="M15 9.01512C16.988 9.01512 17.259 9.01512 18.0723 9.01512C18.7952 9.01512 19.1566 9.1991 19.4277 9.29109C19.7892 9.47507 20.0602 9.56706 20.3313 9.84303C20.6024 10.119 20.7831 10.395 20.8735 10.7629C20.9639 11.0389 21.0542 11.4069 21.1446 12.1428C21.1446 12.9707 21.1446 13.1547 21.1446 15.2705C21.1446 17.3863 21.1446 17.5703 21.1446 18.3982C21.1446 19.1341 20.9639 19.5021 20.8735 19.778C20.6928 20.146 20.6024 20.422 20.3313 20.6979C20.0602 20.9739 19.7892 21.1579 19.4277 21.2499C19.1566 21.3419 18.7952 21.4339 18.0723 21.5259C17.259 21.5259 17.0783 21.5259 15 21.5259C12.9217 21.5259 12.741 21.5259 11.9277 21.5259C11.2048 21.5259 10.8434 21.3419 10.5723 21.2499C10.2108 21.0659 9.93976 20.9739 9.66868 20.6979C9.39759 20.422 9.21687 20.146 9.12651 19.778C9.03614 19.5021 8.94578 19.1341 8.85542 18.3982C8.85542 17.5703 8.85542 17.3863 8.85542 15.2705C8.85542 13.1547 8.85542 12.9707 8.85542 12.1428C8.85542 11.4069 9.03614 11.0389 9.12651 10.7629C9.30723 10.395 9.39759 10.119 9.66868 9.84303C9.93976 9.56706 10.2108 9.38308 10.5723 9.29109C10.8434 9.1991 11.2048 9.10711 11.9277 9.01512C12.741 9.01512 13.012 9.01512 15 9.01512ZM15 7.63525C12.9217 7.63525 12.741 7.63525 11.9277 7.63525C11.1145 7.63525 10.5723 7.81924 10.1205 8.00322C9.66868 8.1872 9.21687 8.46317 8.76506 8.92313C8.31325 9.38308 8.13253 9.75104 7.86145 10.303C7.68072 10.7629 7.59036 11.3149 7.5 12.1428C7.5 12.9707 7.5 13.2467 7.5 15.2705C7.5 17.3863 7.5 17.5703 7.5 18.3982C7.5 19.2261 7.68072 19.778 7.86145 20.238C8.04217 20.6979 8.31325 21.1579 8.76506 21.6179C9.21687 22.0778 9.57831 22.2618 10.1205 22.5378C10.5723 22.7217 11.1145 22.8137 11.9277 22.9057C12.741 22.9057 13.012 22.9057 15 22.9057C16.988 22.9057 17.259 22.9057 18.0723 22.9057C18.8855 22.9057 19.4277 22.7217 19.8795 22.5378C20.3313 22.3538 20.7831 22.0778 21.2349 21.6179C21.6867 21.1579 21.8675 20.7899 22.1386 20.238C22.3193 19.778 22.4096 19.2261 22.5 18.3982C22.5 17.5703 22.5 17.2943 22.5 15.2705C22.5 13.2467 22.5 12.9707 22.5 12.1428C22.5 11.3149 22.3193 10.7629 22.1386 10.303C21.9578 9.84303 21.6867 9.38308 21.2349 8.92313C20.7831 8.46317 20.4217 8.27919 19.8795 8.00322C19.4277 7.81924 18.8855 7.72724 18.0723 7.63525C17.259 7.63525 17.0783 7.63525 15 7.63525Z" fill="white"/>
<path d="M15 11.3149C12.8313 11.3149 11.1145 13.0627 11.1145 15.2705C11.1145 17.4783 12.8313 19.2261 15 19.2261C17.1687 19.2261 18.8855 17.4783 18.8855 15.2705C18.8855 13.0627 17.1687 11.3149 15 11.3149ZM15 17.8462C13.6446 17.8462 12.4699 16.7423 12.4699 15.2705C12.4699 13.8906 13.5542 12.6947 15 12.6947C16.3554 12.6947 17.5301 13.7986 17.5301 15.2705C17.5301 16.6504 16.3554 17.8462 15 17.8462Z" fill="white"/>
<path d="M18.9759 12.1428C19.475 12.1428 19.8795 11.7309 19.8795 11.2229C19.8795 10.7148 19.475 10.303 18.9759 10.303C18.4769 10.303 18.0723 10.7148 18.0723 11.2229C18.0723 11.7309 18.4769 12.1428 18.9759 12.1428Z" fill="white"/>
<defs>
<radialGradient id="paint0_radial_95_3362" cx="0" cy="0" r="1" gradientUnits="userSpaceOnUse" gradientTransform="translate(30.6035 0.620364) scale(69.2789 70.5281)">
<stop stop-color="#F9ED32"/>
<stop offset="0.36" stop-color="#EE2A7B"/>
<stop offset="0.44" stop-color="#D22A8A"/>
<stop offset="0.6" stop-color="#8B2AB2"/>
<stop offset="0.83" stop-color="#1B2AF0"/>
<stop offset="0.88" stop-color="#002AFF"/>
</radialGradient>
</defs>
</svg>
