<svg width="21" height="20" viewBox="0 0 21 20" xmlns="http://www.w3.org/2000/svg">
<path id="svgClass" d="M19.5 10.79C19.3427 12.4922 18.7039 14.1144 17.6583 15.4668C16.6127 16.8192 15.2035 17.8458 13.5957 18.4265C11.9879 19.0073 10.248 19.1181 8.57952 18.7461C6.91104 18.3741 5.38302 17.5345 4.17425 16.3258C2.96548 15.117 2.12596 13.589 1.75393 11.9205C1.3819 10.252 1.49274 8.51208 2.07348 6.9043C2.65423 5.29651 3.68085 3.88737 5.03324 2.84175C6.38562 1.79614 8.00782 1.15731 9.71002 1C8.71344 2.34827 8.23387 4.00945 8.35856 5.68141C8.48324 7.35338 9.20388 8.92506 10.3894 10.1106C11.575 11.2961 13.1466 12.0168 14.8186 12.1415C16.4906 12.2662 18.1518 11.7866 19.5 10.79V10.79Z" stroke-width="2" stroke-linecap="round" stroke-linejoin="round"/>
</svg>
