<svg width="36" height="35" viewBox="0 0 36 35" fill="none" xmlns="http://www.w3.org/2000/svg">
<g id="Medium/phone-call">
<path id="Icon" d="M22.5756 7.29166C24.0407 7.56957 25.3872 8.2662 26.4427 9.2924C27.4982 10.3186 28.2148 11.6277 28.5006 13.0521M22.5756 1.45833C25.6195 1.78709 28.458 3.11233 30.625 5.21646C32.792 7.3206 34.1586 10.0786 34.5006 13.0375M33.0006 24.675V29.05C33.0023 29.4561 32.9168 29.8582 32.7494 30.2303C32.582 30.6024 32.3366 30.9365 32.0287 31.211C31.7209 31.4856 31.3575 31.6947 30.9618 31.8248C30.566 31.9549 30.1467 32.0032 29.7306 31.9667C25.1149 31.4791 20.6811 29.9456 16.7856 27.4896C13.1614 25.2505 10.0886 22.2632 7.78563 18.7396C5.2506 14.9351 3.673 10.6035 3.18063 6.09583C3.14315 5.69255 3.19244 5.2861 3.32538 4.90236C3.45832 4.51862 3.67199 4.166 3.95278 3.86694C4.23357 3.56788 4.57534 3.32895 4.95632 3.16534C5.3373 3.00173 5.74914 2.91704 6.16563 2.91666H10.6656C11.3936 2.9097 12.0993 3.16032 12.6513 3.62181C13.2032 4.08331 13.5637 4.72419 13.6656 5.42499C13.8556 6.82509 14.2078 8.1998 14.7156 9.52291C14.9174 10.0449 14.9611 10.6122 14.8415 11.1575C14.7219 11.7029 14.4439 12.2035 14.0406 12.6L12.1356 14.4521C14.271 18.1031 17.3803 21.1261 21.1356 23.2021L23.0406 21.35C23.4485 20.9579 23.9634 20.6877 24.5243 20.5714C25.0853 20.4551 25.6687 20.4975 26.2056 20.6937C27.5665 21.1875 28.9805 21.5299 30.4206 21.7146C31.1493 21.8145 31.8147 22.1713 32.2904 22.7172C32.7661 23.263 33.0189 23.9598 33.0006 24.675Z" stroke="#1A1A1A" stroke-width="2" stroke-linecap="round" stroke-linejoin="round"/>
</g>
</svg>
